<svg width="50" height="50" viewBox="0 0 50 50" fill="none" xmlns="http://www.w3.org/2000/svg">
<circle cx="25" cy="25" r="25" fill="black"/>
<path opacity="0.4" fill-rule="evenodd" clip-rule="evenodd" d="M22.2789 17.6642C22.2789 17.2972 21.9758 17 21.6025 17H21.6016L20.1536 17.0009C18.206 17.0026 16.6211 18.5585 16.6211 20.4692V22.1218C16.6211 22.4879 16.9242 22.786 17.2975 22.786C17.6709 22.786 17.9749 22.4879 17.9749 22.1218V20.4692C17.9749 19.2898 18.9527 18.3301 20.1545 18.3284L21.6025 18.3275C21.9767 18.3275 22.2789 18.0303 22.2789 17.6642ZM29.3944 17.0003H27.9784C27.6051 17.0003 27.302 17.2975 27.302 17.6645C27.302 18.0306 27.6051 18.3269 27.9784 18.3269H29.3944C30.6007 18.3269 31.582 19.2892 31.582 20.4721V22.1221C31.582 22.4882 31.8851 22.7863 32.2585 22.7863C32.6327 22.7863 32.9349 22.4882 32.9349 22.1221V20.4721C32.9349 18.557 31.3474 17.0003 29.3944 17.0003ZM22.3232 20.3268H27.2334C27.7712 20.3268 28.2877 20.5386 28.6637 20.9161C29.0423 21.297 29.2521 21.8087 29.2512 22.3412V23.4482C29.2468 23.5781 29.141 23.6835 29.0086 23.6871H20.5463C20.4147 23.6827 20.309 23.5772 20.3063 23.4482V22.3412C20.2965 21.2386 21.1996 20.3382 22.3232 20.3268Z" fill="white"/>
<path d="M33.8793 25.0371H15.6773C15.304 25.0371 15 25.3344 15 25.7014C15 26.0674 15.304 26.3638 15.6773 26.3638H16.6205V29.5314C16.6205 31.4421 18.2063 32.998 20.1538 32.9997L21.6018 33.0006C21.9761 33.0006 22.2783 32.7033 22.2792 32.3364C22.2792 31.9702 21.9761 31.673 21.6027 31.673L20.1556 31.6722C18.9529 31.6704 17.9743 30.7108 17.9743 29.5314V26.3638H20.3058V27.245C20.2969 28.3477 21.1992 29.249 22.3227 29.2595H27.233C28.3575 29.249 29.2597 28.3477 29.2508 27.245V26.3638H31.5824V29.5279C31.5824 30.7116 30.601 31.673 29.3948 31.673H27.9788C27.6046 31.673 27.3015 31.9702 27.3015 32.3364C27.3015 32.7033 27.6046 33.0006 27.9788 33.0006H29.3948C31.3468 33.0006 32.9353 31.4438 32.9353 29.5279V26.3638H33.8793C34.2526 26.3638 34.5558 26.0674 34.5558 25.7014C34.5558 25.3344 34.2526 25.0371 33.8793 25.0371Z" fill="white"/>
</svg>
