<svg width="40" height="40" viewBox="0 0 40 40" fill="none" xmlns="http://www.w3.org/2000/svg">
<circle cx="20" cy="20" r="20" fill="#EEEEEE"/>
<path d="M16.3243 22.0646L15.8022 24.0138L13.8938 24.0541C13.3235 22.9964 13 21.7861 13 20.5C13 19.2563 13.3025 18.0835 13.8386 17.0508H13.839L15.538 17.3622L16.2822 19.0511C16.1264 19.5052 16.0415 19.9927 16.0415 20.5C16.0416 21.0505 16.1413 21.578 16.3243 22.0646Z" fill="#FBBB00"/>
<path d="M27.8688 19.0996C27.955 19.5533 27.9999 20.0218 27.9999 20.5007C27.9999 21.0377 27.9434 21.5614 27.8359 22.0667C27.4708 23.7858 26.5168 25.2871 25.1952 26.3494L25.1949 26.3491L23.0549 26.2398L22.752 24.3491C23.629 23.8349 24.3142 23.0301 24.6753 22.0667H20.6648V19.0996H24.7338H27.8688Z" fill="#518EF8"/>
<path d="M25.1947 26.3481L25.1951 26.3485C23.9099 27.3816 22.2771 27.9997 20.4998 27.9997C17.6437 27.9997 15.1605 26.4033 13.8937 24.0541L16.3242 22.0645C16.9576 23.7549 18.5882 24.9581 20.4998 24.9581C21.3216 24.9581 22.0913 24.736 22.7519 24.3482L25.1947 26.3481Z" fill="#28B446"/>
<path d="M25.2872 14.7266L22.8575 16.7157C22.1738 16.2884 21.3658 16.0415 20.4999 16.0415C18.545 16.0415 16.8839 17.3001 16.2822 19.051L13.839 17.0508H13.8386C15.0868 14.6442 17.6013 13 20.4999 13C22.3197 13 23.9883 13.6482 25.2872 14.7266Z" fill="#F14336"/>
</svg>
