<svg width="40" height="40" viewBox="0 0 40 40" fill="none" xmlns="http://www.w3.org/2000/svg">
<rect width="40" height="40" rx="7" fill="#EEEEEE"/>
<path fill-rule="evenodd" clip-rule="evenodd" d="M25.1657 17.4371C25.1657 18.4418 25.4312 19.034 26.0156 19.7165C26.4585 20.2193 26.6 20.8646 26.6 21.5648C26.6 22.2642 26.3702 22.9281 25.9098 23.4671C25.3072 24.1134 24.4572 24.5258 23.5898 24.5976C22.3327 24.7047 21.075 24.795 19.8004 24.795C18.525 24.795 17.268 24.741 16.011 24.5976C15.1428 24.5258 14.2928 24.1134 13.6909 23.4671C13.2306 22.9281 13 22.2642 13 21.5648C13 20.8646 13.1423 20.2193 13.5844 19.7165C14.1871 19.034 14.4351 18.4418 14.4351 17.4371V17.0962C14.4351 15.7507 14.7707 14.8708 15.4616 14.0095C16.4888 12.7534 18.1355 12 19.7646 12H19.8362C21.5003 12 23.2002 12.7896 24.21 14.0997C24.8651 14.9433 25.1657 15.7861 25.1657 17.0962V17.4371ZM17.4589 26.4486C17.4589 26.0458 17.8287 25.8613 18.1705 25.7823C18.5705 25.6978 21.0074 25.6978 21.4074 25.7823C21.7493 25.8613 22.119 26.0458 22.119 26.4486C22.099 26.8322 21.8741 27.1722 21.5632 27.3882C21.1601 27.7024 20.687 27.9014 20.1925 27.9731C19.919 28.0086 19.6502 28.0094 19.3862 27.9731C18.8909 27.9014 18.4178 27.7024 18.0155 27.3874C17.7038 27.1722 17.4788 26.8322 17.4589 26.4486Z" fill="black"/>
</svg>
