<svg width="40" height="40" viewBox="0 0 40 40" fill="none" xmlns="http://www.w3.org/2000/svg">
<rect width="40" height="40" rx="7" fill="#EEEEEE"/>
<path d="M19.5111 12C18.9211 12.5498 18.4478 13.2129 18.1196 13.9495C17.7913 14.6862 17.6148 15.4815 17.6006 16.2879C17.5864 17.0943 17.7347 17.8953 18.0368 18.6431C18.3388 19.3909 18.7884 20.0702 19.3587 20.6405C19.929 21.2108 20.6083 21.6604 21.3561 21.9624C22.1039 22.2645 22.9049 22.4128 23.7113 22.3986C24.5177 22.3844 25.313 22.2079 26.0497 21.8796C26.7863 21.5514 27.4494 21.0781 27.9992 20.4881C27.7446 24.68 24.2645 28 20.0084 28C15.585 28 12 24.415 12 19.9924C12 15.7363 15.32 12.2562 19.5111 12Z" fill="black"/>
</svg>
