<svg width="40" height="40" viewBox="0 0 40 40" fill="none" xmlns="http://www.w3.org/2000/svg">
<rect width="40" height="40" rx="7" fill="#EEEEEE"/>
<path d="M12 20.8097H16.4348C16.5734 23.374 17.3907 25.8554 18.8032 28C17.034 27.7221 15.4066 26.8657 14.1757 25.5648C12.9448 24.2638 12.1797 22.5917 12 20.8097ZM12 19.1903C12.1797 17.4083 12.9448 15.7362 14.1757 14.4352C15.4066 13.1343 17.034 12.2779 18.8032 12C17.3907 14.1446 16.5734 16.626 16.4348 19.1903H12ZM28.1134 19.1903H23.6785C23.54 16.626 22.7226 14.1446 21.3101 12C23.0794 12.2779 24.7067 13.1343 25.9376 14.4352C27.1686 15.7362 27.9337 17.4083 28.1134 19.1903ZM28.1134 20.8097C27.9337 22.5917 27.1686 24.2638 25.9376 25.5648C24.7067 26.8657 23.0794 27.7221 21.3101 28C22.7226 25.8554 23.54 23.374 23.6785 20.8097H28.1142H28.1134ZM18.0567 20.8097H22.0567C21.9234 22.9955 21.2351 25.1113 20.0567 26.9571C18.8783 25.1113 18.19 22.9955 18.0567 20.8097ZM18.0567 19.1903C18.19 17.0045 18.8783 14.8887 20.0567 13.0429C21.2351 14.8887 21.9234 17.0045 22.0567 19.1903H18.0567Z" fill="black"/>
</svg>
