<svg width="14" height="16" viewBox="0 0 14 16" fill="none" xmlns="http://www.w3.org/2000/svg">
<path d="M13.0155 7.71618C12.4311 7.03378 12.1656 6.44243 12.1656 5.43768V5.09606C12.1656 3.7868 11.8642 2.94323 11.2091 2.09965C10.1994 0.789585 8.49945 0 6.8353 0H6.76458C5.13544 0 3.48882 0.75333 2.46158 2.01022C1.77065 2.87071 1.43433 3.75054 1.43433 5.09606V5.43768C1.43433 6.44243 1.18626 7.03378 0.584387 7.71618C0.141527 8.21897 0 8.86513 0 9.56448C0 10.2646 0.229782 10.9277 0.69093 11.4668C1.2928 12.1129 2.14275 12.5254 3.01097 12.5972C4.268 12.7405 5.52499 12.7945 6.80034 12.7945C8.07489 12.7945 9.33192 12.7043 10.5897 12.5972C11.4571 12.5254 12.3071 12.1129 12.9089 11.4668C13.3693 10.9277 13.5999 10.2646 13.5999 9.56448C13.5999 8.86513 13.4584 8.21897 13.0155 7.71618Z" fill="black"/>
<path opacity="0.4" d="M8.40697 13.7828C8.00697 13.6974 5.57012 13.6974 5.17016 13.7828C4.82827 13.8618 4.45856 14.0455 4.45856 14.4483C4.47844 14.8326 4.70344 15.1719 5.01512 15.387L5.01432 15.3878C5.4174 15.7019 5.89051 15.9018 6.38587 15.9735C6.64979 16.0098 6.9185 16.0082 7.19202 15.9735C7.68658 15.9018 8.15969 15.7019 8.56281 15.3878L8.56201 15.387C8.87369 15.1719 9.09865 14.8326 9.11857 14.4483C9.11857 14.0455 8.74881 13.8618 8.40697 13.7828Z" fill="black"/>
</svg>
