<svg width="40" height="40" viewBox="0 0 40 40" fill="none" xmlns="http://www.w3.org/2000/svg">
<rect width="40" height="40" rx="7" fill="#EEEEEE"/>
<path d="M20 28C15.5816 28 12 24.4184 12 20C12 15.5816 15.5816 12 20 12C24.4184 12 28 15.5816 28 20C28 24.4184 24.4184 28 20 28ZM19.2 22.4V24H20.8V22.4H19.2ZM20.8 21.084C21.4429 20.8902 21.9949 20.472 22.3553 19.9054C22.7158 19.3388 22.8607 18.6616 22.7638 17.9972C22.6669 17.3327 22.3345 16.7252 21.8272 16.2852C21.3199 15.8452 20.6715 15.602 20 15.6C19.3527 15.6 18.7253 15.8241 18.2246 16.2344C17.7239 16.6447 17.3808 17.2157 17.2536 17.8504L18.8232 18.1648C18.8677 17.9419 18.9747 17.7363 19.1315 17.5719C19.2883 17.4074 19.4887 17.2908 19.7091 17.2358C19.9296 17.1807 20.1612 17.1894 20.377 17.2608C20.5927 17.3322 20.7838 17.4634 20.9279 17.6391C21.072 17.8149 21.1632 18.0279 21.1909 18.2535C21.2187 18.479 21.1818 18.7078 21.0846 18.9133C20.9874 19.1187 20.8339 19.2923 20.6419 19.4139C20.4498 19.5354 20.2273 19.6 20 19.6C19.7878 19.6 19.5843 19.6843 19.4343 19.8343C19.2843 19.9843 19.2 20.1878 19.2 20.4V21.6H20.8V21.084Z" fill="black"/>
</svg>
