<svg width="40" height="40" viewBox="0 0 40 40" fill="none" xmlns="http://www.w3.org/2000/svg">
<rect width="40" height="40" rx="7" fill="#EEEEEE"/>
<path fill-rule="evenodd" clip-rule="evenodd" d="M12 20C12 15.5848 15.584 12 20 12C24.424 12 28 15.5848 28 20C28 24.4168 24.424 28 20 28C15.584 28 12 24.4168 12 20ZM19.296 16.968C19.296 16.5848 19.616 16.264 20 16.264C20.384 16.264 20.696 16.5848 20.696 16.968V20.504C20.696 20.8888 20.384 21.2 20 21.2C19.616 21.2 19.296 20.8888 19.296 20.504V16.968ZM20.008 23.7448C19.616 23.7448 19.304 23.4248 19.304 23.0408C19.304 22.6568 19.616 22.3448 20 22.3448C20.392 22.3448 20.704 22.6568 20.704 23.0408C20.704 23.4248 20.392 23.7448 20.008 23.7448Z" fill="black"/>
</svg>
