<svg width="40" height="40" viewBox="0 0 40 40" fill="none" xmlns="http://www.w3.org/2000/svg">
<rect width="40" height="40" rx="7" fill="#EEEEEE"/>
<path fill-rule="evenodd" clip-rule="evenodd" d="M19.5825 27.9309C19.671 27.9772 19.7702 28.0007 19.8692 28C19.9682 27.9992 20.0665 27.9749 20.1559 27.9277L23.0102 26.402C23.8196 25.9705 24.4534 25.4881 24.948 24.9263C26.0232 23.7025 26.6103 22.1406 26.5998 20.5301L26.566 15.2176C26.5628 14.6057 26.1609 14.0597 25.5666 13.8612L20.2566 12.0796C19.9369 11.9714 19.5865 11.9737 19.2724 12.0851L13.9826 13.9302C13.3914 14.1366 12.9968 14.6865 13 15.2992L13.0339 20.6078C13.0443 22.2206 13.6516 23.7755 14.7445 24.9868C15.2438 25.5406 15.8833 26.016 16.7016 26.4404L19.5825 27.9309ZM18.8269 21.6871C18.9461 21.8017 19.1007 21.8582 19.2554 21.8566C19.41 21.8558 19.5638 21.7978 19.6814 21.6817L22.8006 18.6065C23.035 18.3751 23.0326 18.0032 22.7958 17.7749C22.5582 17.5466 22.1757 17.5482 21.9413 17.7796L19.2465 20.4359L18.1431 19.3753C17.9055 19.147 17.5237 19.1494 17.2886 19.3808C17.0542 19.6122 17.0566 19.984 17.2942 20.2123L18.8269 21.6871Z" fill="black"/>
</svg>
