<svg width="40" height="40" viewBox="0 0 40 40" fill="none" xmlns="http://www.w3.org/2000/svg">
<rect width="40" height="40" rx="7" fill="#EEEEEE"/>
<path d="M24.9937 14.9988H27.9926L30.9914 19.0532V24.9949H28.9572C28.8384 25.8289 28.4226 26.592 27.7863 27.144C27.15 27.6961 26.3359 28 25.4935 28C24.6512 28 23.837 27.6961 23.2008 27.144C22.5645 26.592 22.1487 25.8289 22.0299 24.9949H16.9619C16.843 25.8289 16.4273 26.592 15.791 27.144C15.1547 27.6961 14.3406 28 13.4982 28C12.6559 28 11.8417 27.6961 11.2055 27.144C10.5692 26.592 10.1534 25.8289 10.0346 24.9949H9V12.9996C9 12.7345 9.10532 12.4802 9.29278 12.2928C9.48024 12.1053 9.7345 12 9.99961 12H23.9941C24.2592 12 24.5135 12.1053 24.701 12.2928C24.8884 12.4802 24.9937 12.7345 24.9937 12.9996V14.9988ZM24.9937 16.998V19.9969H28.9922V19.712L26.985 16.998H24.9937Z" fill="black"/>
</svg>
