<svg width="40" height="40" viewBox="0 0 40 40" fill="none" xmlns="http://www.w3.org/2000/svg">
<rect width="40" height="40" rx="7" fill="#EEEEEE"/>
<path fill-rule="evenodd" clip-rule="evenodd" d="M23.6631 12.0001C24.1945 12.0001 24.725 12.0751 25.2294 12.2443C28.3376 13.2549 29.4576 16.6654 28.522 19.6464C27.9915 21.1697 27.1241 22.56 25.9881 23.696C24.362 25.2708 22.5776 26.6686 20.6568 27.8728L20.4463 28L20.2273 27.8644C18.2998 26.6686 16.5052 25.2708 14.864 23.6876C13.7356 22.5516 12.8674 21.1697 12.3284 19.6464C11.3769 16.6654 12.4969 13.2549 15.6387 12.2267C15.8829 12.1424 16.1347 12.0835 16.3873 12.0507H16.4884C16.725 12.0161 16.96 12.0001 17.1958 12.0001H17.2884C17.8189 12.0161 18.3326 12.1088 18.8303 12.278H18.88C18.9137 12.294 18.9389 12.3117 18.9558 12.3277C19.1419 12.3875 19.3179 12.4549 19.4863 12.5475L19.8063 12.6907C19.8836 12.7319 19.9704 12.7949 20.0454 12.8494C20.0929 12.8839 20.1357 12.9149 20.1684 12.9349C20.1821 12.943 20.1961 12.9511 20.2102 12.9593C20.2823 13.0015 20.3576 13.0454 20.421 13.094C21.3566 12.3791 22.4926 11.9917 23.6631 12.0001ZM25.9031 18.0632C26.2483 18.054 26.5431 17.7769 26.5683 17.4224V17.3222C26.5936 16.1424 25.8787 15.0738 24.7915 14.6612C24.4463 14.5424 24.0673 14.7285 23.941 15.0822C23.8231 15.4359 24.0084 15.8233 24.362 15.9487C24.9018 16.1508 25.2631 16.6822 25.2631 17.2708V17.2969C25.2471 17.4898 25.3052 17.6759 25.4231 17.819C25.541 17.9622 25.7178 18.0456 25.9031 18.0632Z" fill="black"/>
</svg>
