<svg width="137" height="83" viewBox="0 0 137 83" fill="none" xmlns="http://www.w3.org/2000/svg">
<path d="M89.5385 9.5825C92.5034 9.05307 95.3359 8.28539 98.036 7.27946C100.736 6.22059 103.41 4.57934 106.057 2.35571C104.627 3.78519 103.066 5.00289 101.371 6.00882C99.0948 7.3324 96.6859 8.3648 94.1446 9.10601C91.6033 9.84722 89.0091 10.4031 86.3619 10.7737C84.1912 11.0384 82.047 11.1443 79.9293 11.0914C77.8645 11.0384 75.7732 10.8531 73.6555 10.5355C71.5377 10.2178 69.42 9.82075 67.3023 9.34426C65.1845 8.86777 63.0403 8.3648 60.8696 7.83537C60.7637 7.83537 60.4725 8.12656 59.996 8.70893C59.5196 9.23837 59.0166 9.90016 58.4872 10.6943C57.9577 11.4355 57.4548 12.1767 56.9783 12.9179C56.5018 13.6062 56.1841 14.0562 56.0253 14.268C54.4899 16.7034 53.034 19.1918 51.6574 21.733C50.2809 24.2743 48.9573 26.8421 47.6867 29.4363C48.7455 29.1187 49.8044 28.7745 50.8633 28.4039C51.9222 27.9804 52.981 27.5568 54.0399 27.1333C54.1458 27.0803 54.1987 26.9745 54.1987 26.8156C54.2517 26.6568 54.2781 26.5244 54.2781 26.4185C54.384 25.995 54.4634 25.5979 54.5164 25.2273C54.6223 24.8567 54.7811 24.4596 54.9929 24.0361C55.5753 22.6066 56.4224 21.283 57.5342 20.0653C58.6989 18.7947 59.9696 17.7887 61.3461 17.0475C61.7167 16.8358 62.1403 16.6505 62.6168 16.4916C63.1462 16.2799 63.6492 16.1475 64.1256 16.0946C64.6551 16.0416 65.158 16.0946 65.6345 16.2534C66.111 16.3593 66.5081 16.624 66.8258 17.0475C67.2493 17.577 67.4081 18.1594 67.3023 18.7947C67.1964 19.43 66.9846 19.9859 66.6669 20.4624C65.3433 22.3154 63.6227 23.7449 61.5049 24.7508C59.3872 25.7568 57.2695 26.6833 55.1517 27.5304C55.0458 27.5833 54.9135 27.6362 54.7546 27.6892C54.5958 27.7421 54.5164 27.8215 54.5164 27.9274C54.5164 28.8804 54.6488 29.8069 54.9135 30.707C55.2311 31.607 55.7606 32.4276 56.5018 33.1688C57.4018 34.0689 58.4077 34.7042 59.5196 35.0748C60.6843 35.4454 61.8755 35.6837 63.0932 35.7895C62.0344 35.8425 60.9755 35.7366 59.9166 35.4719C58.8578 35.2072 57.8783 34.7307 56.9783 34.0424C56.0782 33.3012 55.39 32.4012 54.9135 31.3423C54.437 30.2305 54.1987 29.0922 54.1987 27.9274C53.1399 28.351 52.0545 28.7216 50.9427 29.0392C49.8838 29.3569 48.7985 29.6481 47.6867 29.9128C47.422 30.0187 47.2896 30.0981 47.2896 30.1511C47.0778 30.6276 46.8396 31.104 46.5749 31.5805C46.3631 32.057 46.1778 32.4541 46.019 32.7718C45.013 34.7836 43.8747 37.0602 42.6041 39.6015C41.3864 42.0898 40.0099 44.6841 38.4745 47.3842C36.9921 50.0843 35.3773 52.7844 33.6302 55.4845C31.883 58.1847 30.03 60.6995 28.0711 63.029C26.1651 65.4114 24.1268 67.5027 21.9561 69.3028C19.7854 71.1029 17.5353 72.4529 15.2058 73.353C14.2528 73.7236 13.2204 74.0148 12.1086 74.2265C11.0498 74.4383 9.96441 74.5177 8.8526 74.4648C7.79373 74.4648 6.76133 74.253 5.7554 73.8295C4.80242 73.4589 3.92885 72.8765 3.1347 72.0823C2.12877 71.0764 1.41404 69.9381 0.990487 68.6675C0.566939 67.3968 0.328693 66.0732 0.275749 64.6967C0.222806 63.3202 0.355165 61.9701 0.672826 60.6465C0.990487 59.27 1.38756 57.9729 1.86406 56.7552C2.92293 54.108 4.32593 51.6726 6.07307 49.449C7.87315 47.2253 9.91147 45.2664 12.188 43.5722C13.4587 42.6193 14.994 41.6663 16.7941 40.7133C18.6472 39.7603 20.5796 38.9132 22.5914 38.172C24.6033 37.3779 26.6152 36.769 28.627 36.3455C30.6918 35.869 32.5448 35.6837 34.1861 35.7895C35.2449 35.8954 35.8538 36.1337 36.0126 36.5043C36.2244 36.8749 36.145 37.2984 35.7744 37.7749C35.4567 38.1985 34.9538 38.622 34.2655 39.0456C33.6302 39.4162 32.9949 39.6809 32.3595 39.8397C32.4125 39.8397 32.5448 39.7338 32.7566 39.5221C33.0213 39.3103 33.2331 39.072 33.3919 38.8073C33.5508 38.4897 33.6037 38.1985 33.5508 37.9338C33.5508 37.6161 33.339 37.3778 32.9154 37.219C32.3331 37.0072 31.7507 36.9014 31.1683 36.9014C30.5859 36.9014 30.0035 36.9543 29.4212 37.0602C29.0506 37.1131 28.4417 37.2455 27.5946 37.4573C26.7475 37.6161 25.7681 37.8543 24.6562 38.172C23.5444 38.4897 22.3267 38.8867 21.0031 39.3632C19.7325 39.8397 18.4619 40.3956 17.1912 41.031C14.6499 42.2487 12.3204 43.8634 10.2027 45.8753C8.08492 47.8871 6.36426 50.1372 5.04067 52.6256C4.40534 53.7903 3.84944 55.061 3.37295 56.4375C2.9494 57.814 2.65821 59.2435 2.49938 60.7259C2.34055 62.1554 2.34055 63.5849 2.49938 65.0144C2.65821 66.4968 3.05528 67.8733 3.69061 69.144C4.22004 70.2028 4.93478 70.997 5.83482 71.5264C6.73486 72.1088 7.68784 72.5059 8.69377 72.7177C9.75264 72.9294 10.838 72.9559 11.9498 72.7971C13.1146 72.6912 14.2528 72.4794 15.3647 72.1618C17.9589 71.3147 20.2884 69.9646 22.3532 68.1116C24.4709 66.2585 26.3769 64.1408 28.0711 61.7583C29.7653 59.3759 31.3271 56.8611 32.7566 54.2139C34.1861 51.5138 35.5361 48.8931 36.8068 46.3518C38.1833 43.7046 39.5334 41.0839 40.857 38.4897C42.2335 35.8954 43.61 33.2747 44.9866 30.6276C42.6041 31.157 40.1952 31.607 37.7598 31.9776C35.3244 32.2953 32.889 32.4276 30.4536 32.3747C28.2829 32.3747 26.1122 32.11 23.9415 31.5805C21.7708 31.0511 19.9707 30.204 18.5413 29.0392C17.1118 27.8745 16.2118 26.3921 15.8411 24.592C15.5235 22.739 16.1059 20.5153 17.5883 17.9211C18.5942 16.2799 19.8384 14.8239 21.3208 13.5533C22.8032 12.2826 24.418 11.1708 26.1651 10.2178C27.9123 9.26484 29.7388 8.49716 31.6448 7.91478C33.6037 7.27946 35.5361 6.75002 37.4421 6.32648C40.9893 5.58527 44.616 5.13525 48.322 4.97642C52.028 4.76464 55.7076 5.05583 59.3607 5.84998L61.5049 6.32648C62.352 5.47938 63.2521 4.65876 64.2051 3.8646C65.158 3.07045 66.2169 2.22335 67.3817 1.32331C67.8582 0.952703 68.3611 0.687989 68.8906 0.529158C69.42 0.317384 69.8435 0.26444 70.1612 0.370325C70.5318 0.476214 70.7965 0.740932 70.9554 1.16448C71.1142 1.53508 71.0877 2.09099 70.8759 2.8322C70.5053 3.83813 69.8435 4.68523 68.8906 5.37349C68.9964 5.32055 69.0759 5.10878 69.1288 4.73817C69.2347 4.31462 69.2876 3.97049 69.2876 3.70577C69.2876 2.91162 68.97 2.56748 68.3346 2.67337C67.6993 2.72631 66.9581 2.99103 66.111 3.46753C65.2639 3.89107 64.4433 4.42051 63.6492 5.05583C62.9079 5.69115 62.3785 6.16765 62.0608 6.48531C64.4962 7.12063 66.8258 7.70301 69.0494 8.23244C71.273 8.76188 73.4702 9.18543 75.6409 9.50309C77.8115 9.82075 80.0352 10.0061 82.3117 10.059C84.5883 10.1119 86.9972 9.95311 89.5385 9.5825ZM60.3137 18.3976C58.9372 19.2976 57.693 20.5153 56.5812 22.0507C55.5223 23.5331 54.8341 25.1479 54.5164 26.895C55.0988 26.6303 55.9988 26.1803 57.2165 25.545C58.4872 24.8567 59.7578 24.089 61.0284 23.2419C62.2991 22.3948 63.4109 21.5213 64.3639 20.6212C65.3169 19.6682 65.7934 18.7947 65.7934 18.0005C65.7934 17.4181 65.4757 17.074 64.8404 16.9681C64.258 16.8622 63.7815 16.8622 63.4109 16.9681C62.8285 17.074 62.2726 17.2593 61.7432 17.524C61.2667 17.7887 60.7902 18.0799 60.3137 18.3976ZM45.3042 29.9922C47.3161 26.1274 49.4868 22.2889 51.8163 18.477C54.1458 14.6121 56.8988 11.012 60.0755 7.67654C57.3224 7.09416 54.5693 6.72355 51.8163 6.56472C49.1162 6.40589 46.3631 6.40589 43.5571 6.56472C40.7511 6.7765 37.9715 7.1471 35.2185 7.67654C32.4654 8.20597 29.8182 9.07954 27.2769 10.2972C26.0063 10.8796 24.7621 11.5679 23.5444 12.362C22.3267 13.1562 21.2414 14.0827 20.2884 15.1416C19.759 15.7769 19.2295 16.5181 18.7001 17.3652C18.2236 18.1594 17.8265 19.0329 17.5089 19.9859C17.2441 20.8859 17.0853 21.8125 17.0324 22.7654C16.9794 23.7184 17.1647 24.6449 17.5883 25.545C18.5942 27.2921 20.1825 28.6157 22.3532 29.5157C24.5768 30.3628 26.9593 30.9187 29.5006 31.1835C32.0948 31.3952 34.689 31.3952 37.2833 31.1835C39.8775 30.9717 42.1011 30.6805 43.9542 30.3099C44.06 30.3099 44.3248 30.2569 44.7483 30.1511C44.9601 30.0981 45.1454 30.0452 45.3042 29.9922ZM63.8775 53.658C63.6128 54.0815 63.1098 54.7963 62.3686 55.8022C61.6803 56.8081 60.8862 57.8405 59.9861 58.8994C59.0861 59.9583 58.1331 60.9112 57.1272 61.7583C56.1742 62.5525 55.3271 62.9496 54.5859 62.9496C53.9506 62.9496 53.527 62.6054 53.3152 61.9172C53.1564 61.2289 53.2888 59.9847 53.7123 58.1847L54.4271 55.8022C53.9506 56.914 53.2623 57.9729 52.3623 58.9788C51.4622 59.9318 50.5357 60.7524 49.5827 61.4407C48.6297 62.076 47.7032 62.526 46.8032 62.7907C45.9031 63.0025 45.1884 62.9231 44.659 62.5525C44.1295 62.1819 43.8648 61.4407 43.8648 60.3289C43.8648 59.2171 44.2884 57.6287 45.1355 55.5639C45.5061 54.7169 45.9826 53.8698 46.5649 53.0227C47.2003 52.1226 47.862 51.302 48.5503 50.5608C49.2915 49.8196 50.0327 49.1843 50.7739 48.6548C51.5681 48.0724 52.3358 47.6489 53.077 47.3842C53.8182 47.1195 54.6124 47.04 55.4594 47.1459C56.3595 47.2518 57.0213 47.7018 57.4448 48.496C57.9743 47.6489 58.4508 47.1989 58.8743 47.1459C59.2979 47.04 59.6155 47.1459 59.8273 47.4636C60.092 47.7813 60.2508 48.2048 60.3038 48.7342C60.3567 49.2107 60.3038 49.6078 60.145 49.9255C60.145 49.6607 60.1185 49.449 60.0655 49.2901C59.9596 48.9195 59.6949 48.9195 59.2714 49.2901C58.689 49.7666 58.186 50.4814 57.7625 51.4344C57.3389 52.3873 56.9683 53.3403 56.6507 54.2933C56.333 55.2463 56.0683 56.1199 55.8565 56.914C55.6977 57.6552 55.5918 58.1052 55.5389 58.2641C55.2212 59.4288 55.1683 60.2495 55.38 60.7259C55.5918 61.1495 55.9624 61.2818 56.4918 61.123C57.0742 60.9642 57.7095 60.5671 58.3978 59.9318C59.0861 59.2965 59.7743 58.5817 60.4626 57.7876C61.1509 56.9405 61.7862 56.1199 62.3686 55.3257C62.951 54.4786 63.401 53.7639 63.7186 53.1815L63.8775 53.658ZM55.38 53.0227C56.386 50.9049 56.6507 49.396 56.1742 48.496C55.6977 47.5959 54.8771 47.2783 53.7123 47.543C52.5476 47.8077 51.2504 48.6813 49.821 50.1637C48.3915 51.6461 47.2003 53.7374 46.2473 56.4375C45.612 58.2905 45.5325 59.6141 46.009 60.4083C46.5385 61.2024 47.3061 61.4672 48.3121 61.2024C49.3709 60.9377 50.5622 60.1436 51.8858 58.82C53.2094 57.4434 54.3741 55.511 55.38 53.0227ZM73.393 53.8168C73.4459 53.8168 73.5253 53.8698 73.6312 53.9756L73.7106 54.0551C73.0224 55.1669 72.3076 56.0404 71.5664 56.6758C70.8782 57.3111 70.084 57.7876 69.184 58.1052C68.9722 59.5347 68.4957 60.6465 67.7545 61.4407C67.0662 62.1819 66.325 62.6584 65.5309 62.8702C64.7896 63.0819 64.1014 63.0819 63.4661 62.8702C62.8837 62.6054 62.6454 62.1819 62.7513 61.5995C62.8572 60.8054 63.2808 60.0641 64.022 59.3759C64.7632 58.6876 65.9015 58.1847 67.4368 57.867C67.4368 57.3905 67.3574 56.8611 67.1986 56.2787C67.0397 55.6434 66.8544 55.008 66.6427 54.3727C66.4309 53.7374 66.1926 53.1285 65.9279 52.5462C65.7162 51.9638 65.5573 51.4873 65.4514 51.1167C65.0808 51.6991 64.7367 52.2285 64.419 52.705C64.1543 53.1815 63.8896 53.6315 63.6249 54.0551C63.3602 54.5316 63.069 54.9551 62.7513 55.3257L62.4337 55.0875C62.7513 54.7169 63.069 54.2668 63.3866 53.7374C63.6514 53.3139 63.9425 52.8374 64.2602 52.3079C64.5779 51.7255 64.922 51.1432 65.2926 50.5608V50.402C65.0279 49.0254 65.1073 47.8077 65.5309 46.7489C66.0073 45.637 66.5368 44.8694 67.1192 44.4458C67.5427 44.1282 67.8074 44.2605 67.9133 44.8429C68.0192 45.5841 67.8868 46.3253 67.5162 47.0665C67.1456 47.8077 66.7486 48.6283 66.325 49.5284C66.3779 50.2696 66.5368 50.9579 66.8015 51.5932C67.1192 52.2285 67.4368 52.8638 67.7545 53.4992C68.1251 54.1345 68.4427 54.7963 68.7075 55.4845C69.0251 56.1199 69.2104 56.8081 69.2634 57.5493C70.7987 57.0728 72.1753 55.8287 73.393 53.8168ZM67.4368 45.4782C67.4898 44.9488 67.4368 44.7105 67.278 44.7635C67.1721 44.7635 67.0397 44.9488 66.8809 45.3194C66.7221 45.69 66.5897 46.1665 66.4838 46.7489C66.3779 47.3312 66.325 47.9401 66.325 48.5754C66.5897 48.0989 66.828 47.6224 67.0397 47.1459C67.2515 46.6165 67.3839 46.0606 67.4368 45.4782ZM65.2132 61.2819C66.0603 61.176 66.5897 60.8318 66.8015 60.2495C67.0662 59.6671 67.2515 59.0317 67.3574 58.3435C66.6691 58.5023 66.0868 58.7406 65.6103 59.0582C65.1867 59.3759 64.8691 59.72 64.6573 60.0906C64.4455 60.4083 64.3661 60.6995 64.419 60.9642C64.5249 61.176 64.7896 61.2819 65.2132 61.2819ZM79.5118 47.6224L78.1617 48.9725C77.7911 49.3431 77.4205 49.6872 77.0499 50.0049C76.6793 50.3225 76.4411 50.5608 76.3352 50.7196C76.7587 50.349 77.3411 49.8461 78.0823 49.2107C78.8765 48.5754 79.6971 47.993 80.5442 47.4636C81.3913 46.9342 82.2119 46.5371 83.0061 46.2724C83.8002 46.0076 84.4355 46.0341 84.912 46.3518C85.4415 46.6694 85.5209 47.4371 85.1503 48.6548C84.8326 49.8196 84.3561 51.1432 83.7208 52.6256C83.0855 54.108 82.4502 55.5904 81.8148 57.0728C81.2325 58.5023 80.9413 59.6935 80.9413 60.6465C80.9413 61.5466 81.3119 61.7848 82.0531 61.3613C82.7943 60.8848 83.6414 60.1436 84.5944 59.1376C85.5474 58.0788 86.4739 56.967 87.3739 55.8022C88.274 54.6374 88.8828 53.7639 89.2005 53.1815V53.8962C88.8828 54.4786 88.3269 55.2992 87.5327 56.3581C86.7915 57.364 85.9444 58.37 84.9915 59.3759C84.0914 60.3818 83.1384 61.2554 82.1325 61.9966C81.1795 62.6849 80.3589 63.0025 79.6706 62.9496C79.3 62.8437 79.0353 62.6584 78.8765 62.3937C78.7176 62.076 78.7176 61.4672 78.8765 60.5671C79.0353 59.72 79.4059 58.6082 79.9883 57.2317C80.5707 55.8022 81.1266 54.3992 81.656 53.0227C82.2384 51.6461 82.6619 50.4284 82.9267 49.3696C83.1914 48.3107 83.059 47.6754 82.5296 47.4636C82.2649 47.3577 81.7884 47.4901 81.1001 47.8607C80.4648 48.2313 79.7501 48.7078 78.9559 49.2901C78.1618 49.8196 77.3941 50.402 76.6528 51.0373C75.9116 51.6726 75.3028 52.2285 74.8263 52.705C74.5086 53.1285 74.1116 53.8433 73.6351 54.8492C73.1586 55.8551 72.6556 56.914 72.1262 58.0258C71.6497 59.1376 71.1997 60.17 70.7761 61.123C70.3526 62.076 70.0349 62.6849 69.8231 62.9496C69.6114 63.2143 69.5849 63.0025 69.7437 62.3142C69.9025 61.626 70.1408 60.7259 70.4585 59.6141C70.7761 58.4494 71.1467 57.2052 71.5703 55.8816C72.0468 54.558 72.4968 53.3668 72.9203 52.3079C73.2909 51.302 73.8468 49.9255 74.5881 48.1783C75.3822 46.4312 76.2822 44.4988 77.2882 42.381C78.2941 40.2103 79.4059 37.9338 80.6236 35.5513C81.8413 33.1159 83.0855 30.7599 84.3561 28.4833C85.6797 26.2068 86.9768 24.089 88.2475 22.1301C89.5711 20.1183 90.8417 18.4241 92.0594 17.0475C93.3301 15.6181 94.4154 14.5327 95.3154 13.7915C96.2155 13.0503 96.9567 12.6268 97.5391 12.5209C98.1744 12.415 98.6244 12.5738 98.8891 12.9974C99.1539 13.368 99.2597 13.9503 99.2068 14.7445C99.048 17.1799 98.545 19.5888 97.6979 21.9713C96.8508 24.3537 95.7919 26.6833 94.5213 28.9598C93.2506 31.1835 91.8476 33.3012 90.3123 35.3131C88.8299 37.3249 87.3739 39.1515 85.9444 40.7927C84.5679 42.434 83.2973 43.837 82.1325 45.0017C80.9678 46.1665 80.0942 47.04 79.5118 47.6224ZM88.3269 23.0831C88.0092 23.5596 87.5592 24.3537 86.9768 25.4656C86.3945 26.5244 85.7591 27.7686 85.0709 29.1981C84.3826 30.6276 83.6414 32.1629 82.8473 33.8042C82.0531 35.4454 81.2854 37.0867 80.5442 38.7279C78.7971 42.5928 76.8911 46.8018 74.8263 51.3549C77.5264 48.8137 80.0412 46.2988 82.3708 43.8105C84.7532 41.2692 86.8709 38.675 88.724 36.0278C90.577 33.3277 92.1653 30.5481 93.4889 27.6892C94.8125 24.7773 95.8184 21.7066 96.5067 18.477C96.8243 17.1534 96.9302 16.0946 96.8243 15.3004C96.7714 14.4533 96.4537 14.1092 95.8714 14.268C95.289 14.4268 94.3889 15.1945 93.1712 16.571C91.9535 17.8946 90.3388 20.0653 88.3269 23.0831ZM93.0317 42.8575C92.5552 42.7516 92.2905 42.5398 92.2375 42.2222C92.2375 41.9045 92.317 41.5869 92.4758 41.2692C92.6876 40.9515 92.9258 40.6868 93.1905 40.475C93.5082 40.2633 93.7994 40.1839 94.0641 40.2368C94.2759 40.2897 94.4347 40.475 94.5406 40.7927C94.6994 41.1104 94.7524 41.4545 94.6994 41.8251C94.6465 42.1957 94.4877 42.5134 94.2229 42.7781C93.9582 42.9899 93.5611 43.0163 93.0317 42.8575ZM96.6848 53.1815V53.8962C96.2613 54.6374 95.6789 55.4845 94.9377 56.4375C94.1965 57.3905 93.3758 58.3435 92.4758 59.2965C90.5698 61.4672 88.955 62.6319 87.6315 62.7907C87.0491 62.8437 86.6785 62.4995 86.5197 61.7583C86.3608 61.0171 86.4664 59.773 86.8373 58.0258C86.9432 57.4434 87.1285 56.7022 87.3932 55.8022C87.6579 55.061 87.9756 54.1345 88.3462 53.0227C88.7698 51.8579 89.3521 50.5078 90.0933 48.9725C90.7287 47.8077 91.2581 47.1459 91.6816 46.9871C92.1581 46.7753 92.5287 46.8283 92.7935 47.1459C93.0582 47.4106 93.217 47.8342 93.27 48.4166C93.3758 48.999 93.3494 49.449 93.1905 49.7666C93.1376 49.5549 93.0846 49.3696 93.0317 49.2107C92.9258 49.1048 92.8199 49.0254 92.714 48.9725C92.6611 48.9195 92.5287 48.9725 92.317 49.1313C91.7346 49.6078 91.2316 50.3225 90.8081 51.2755C90.3845 52.2285 90.0139 53.208 89.6963 54.2139C89.3786 55.1669 89.1139 56.0404 88.9021 56.8346C88.7433 57.5758 88.6639 57.9994 88.6639 58.1052C88.4521 59.3229 88.4521 60.0906 88.6639 60.4083C88.8756 60.673 89.2462 60.7259 89.7757 60.5671C90.411 60.3553 91.0463 59.9583 91.6816 59.3759C92.3699 58.7406 93.0317 58.0788 93.667 57.3905C94.3023 56.6493 94.8847 55.9081 95.4142 55.1669C95.9436 54.4257 96.3671 53.7639 96.6848 53.1815ZM110.001 52.7844C110.107 52.6256 110.213 52.5991 110.319 52.705C110.424 52.8109 110.424 52.9168 110.319 53.0227C109.948 53.605 109.577 54.1609 109.207 54.6904C108.889 55.2198 108.519 55.6963 108.095 56.1199C107.671 56.4905 107.142 56.8346 106.507 57.1523C105.924 57.4699 105.21 57.7346 104.362 57.9464C103.462 59.1112 102.43 60.1965 101.265 61.2024C100.1 62.2084 98.671 62.7643 96.9768 62.8702C95.8121 62.976 94.9914 62.7378 94.515 62.1554C94.0385 61.5201 93.8002 60.7524 93.8002 59.8524C93.8002 58.9523 93.9326 57.9994 94.1973 56.9934C94.5149 55.9875 94.8326 55.1404 95.1503 54.4521C96.2091 52.4403 97.6651 50.6667 99.5181 49.1313C99.9417 48.7607 100.498 48.3901 101.186 48.0195C101.874 47.6489 102.562 47.3842 103.251 47.2253C103.992 47.0136 104.68 46.9871 105.315 47.1459C106.004 47.3048 106.533 47.7283 106.904 48.4166C107.221 48.999 107.354 49.6872 107.301 50.4814C107.301 51.2755 107.168 52.0961 106.904 52.9432C106.639 53.7903 106.295 54.611 105.871 55.4051C105.501 56.1463 105.13 56.8081 104.76 57.3905C105.342 57.2317 105.845 57.0464 106.268 56.8346C106.692 56.6228 107.089 56.3581 107.46 56.0404C107.883 55.7228 108.28 55.2992 108.651 54.7698C109.074 54.2404 109.524 53.5786 110.001 52.7844ZM105.633 51.1961C105.898 49.5549 105.713 48.496 105.077 48.0195C104.495 47.543 103.701 47.5165 102.695 47.9401C101.954 48.2577 101.265 48.946 100.63 50.0049C100.048 51.0637 99.6505 52.1756 99.4387 53.3403C99.2799 54.4521 99.4387 55.4581 99.9152 56.3581C100.392 57.2581 101.371 57.7082 102.854 57.7082H103.171C103.859 56.4375 104.415 55.1669 104.839 53.8962C105.262 52.6256 105.527 51.7255 105.633 51.1961ZM97.8504 62.3142C99.0152 62.2084 99.9946 61.7319 100.789 60.8848C101.636 60.0377 102.351 59.1376 102.933 58.1847C101.874 58.1847 101.027 57.9994 100.392 57.6287C99.8093 57.2052 99.3593 56.6493 99.0416 55.961C98.7769 55.2728 98.6445 54.5051 98.6445 53.658C98.6975 52.8109 98.8563 51.9373 99.121 51.0373C98.6975 51.6197 98.1945 52.5462 97.6121 53.8168C97.0827 55.0345 96.6592 56.2787 96.3415 57.5493C96.0238 58.82 95.918 59.9583 96.0238 60.9642C96.1827 61.9172 96.7915 62.3672 97.8504 62.3142ZM125.891 54.0551C125.52 54.6374 125.017 55.4051 124.382 56.3581C123.747 57.2581 123.032 58.1847 122.238 59.1376C121.444 60.0377 120.623 60.8583 119.776 61.5995C118.929 62.2878 118.135 62.7113 117.393 62.8702C116.599 63.029 116.07 62.8702 115.805 62.3937C115.54 61.8642 115.461 61.2024 115.567 60.4083C115.726 59.5612 116.017 58.5023 116.44 57.2317C116.917 55.9081 117.367 54.6374 117.791 53.4197C118.214 52.202 118.505 51.1167 118.664 50.1637C118.823 49.2107 118.664 48.6283 118.188 48.4166C117.87 48.3636 117.34 48.5489 116.599 48.9725C115.911 49.3431 115.17 49.8196 114.376 50.402C113.634 50.9843 112.946 51.5667 112.311 52.1491C111.676 52.7315 111.278 53.1285 111.12 53.3403C110.802 53.8698 110.431 54.6374 110.008 55.6434C109.584 56.5964 109.161 57.6023 108.737 58.6611C108.367 59.6671 107.996 60.5936 107.625 61.4407C107.308 62.2348 107.069 62.7113 106.911 62.8702C106.699 63.1349 106.672 62.9496 106.831 62.3142C106.937 61.626 107.122 60.7259 107.387 59.6141C107.705 58.5023 108.075 57.2846 108.499 55.961C108.922 54.6374 109.346 53.4462 109.77 52.3873C109.875 52.0697 110.008 51.7255 110.167 51.3549C110.378 50.9314 110.537 50.5608 110.643 50.2431C110.802 49.8725 110.934 49.4754 111.04 49.0519C111.146 48.7872 111.12 48.6019 110.961 48.496C110.855 48.3901 110.723 48.3636 110.564 48.4166C110.352 48.4695 110.114 48.5754 109.849 48.7342C111.067 47.7283 111.887 47.2518 112.311 47.3048C112.734 47.3577 112.92 47.6489 112.867 48.1783C112.867 48.7078 112.708 49.3696 112.39 50.1637C112.126 50.9049 111.887 51.5138 111.676 51.9903C111.887 51.6726 112.39 51.1961 113.184 50.5608C113.979 49.9255 114.852 49.3166 115.805 48.7342C116.758 48.1519 117.658 47.7018 118.505 47.3842C119.405 47.0665 120.014 47.0665 120.332 47.3842C120.702 47.7548 120.835 48.3372 120.729 49.1313C120.676 49.9255 120.517 50.8255 120.252 51.8314C119.988 52.8374 119.644 53.9227 119.22 55.0875C118.849 56.1993 118.505 57.3111 118.188 58.4229C117.87 59.6935 117.817 60.5142 118.029 60.8848C118.241 61.2554 118.585 61.3348 119.061 61.123C119.538 60.9112 120.12 60.4612 120.808 59.773C121.497 59.0847 122.158 58.3435 122.794 57.5493C123.482 56.7552 124.117 55.961 124.7 55.1669C125.282 54.3198 125.706 53.658 125.97 53.1815L125.891 54.0551ZM135.669 53.8168C135.722 53.8168 135.801 53.8698 135.907 53.9756L135.987 54.0551C135.298 55.1669 134.584 56.0404 133.842 56.6758C133.154 57.3111 132.36 57.7876 131.46 58.1052C131.248 59.5347 130.772 60.6465 130.03 61.4407C129.342 62.1819 128.601 62.6584 127.807 62.8702C127.066 63.0819 126.377 63.0819 125.742 62.8702C125.16 62.6054 124.921 62.1819 125.027 61.5995C125.133 60.8054 125.557 60.0641 126.298 59.3759C127.039 58.6876 128.177 58.1847 129.713 57.867C129.713 57.3905 129.633 56.8611 129.475 56.2787C129.316 55.6434 129.13 55.008 128.919 54.3727C128.707 53.7374 128.469 53.1285 128.204 52.5462C127.992 51.9638 127.833 51.4873 127.727 51.1167C127.357 51.6991 127.013 52.2285 126.695 52.705C126.43 53.1815 126.166 53.6315 125.901 54.0551C125.636 54.5316 125.345 54.9551 125.027 55.3257L124.71 55.0875C125.027 54.7169 125.345 54.2668 125.663 53.7374C125.927 53.3139 126.218 52.8374 126.536 52.3079C126.854 51.7255 127.198 51.1432 127.569 50.5608V50.402C127.304 49.0254 127.383 47.8077 127.807 46.7489C128.283 45.637 128.813 44.8694 129.395 44.4458C129.819 44.1282 130.083 44.2605 130.189 44.8429C130.295 45.5841 130.163 46.3253 129.792 47.0665C129.422 47.8077 129.024 48.6283 128.601 49.5284C128.654 50.2696 128.813 50.9579 129.077 51.5932C129.395 52.2285 129.713 52.8638 130.03 53.4992C130.401 54.1345 130.719 54.7963 130.983 55.4845C131.301 56.1199 131.486 56.8081 131.539 57.5493C133.075 57.0728 134.451 55.8287 135.669 53.8168ZM129.713 45.4782C129.766 44.9488 129.713 44.7105 129.554 44.7635C129.448 44.7635 129.316 44.9488 129.157 45.3194C128.998 45.69 128.866 46.1665 128.76 46.7489C128.654 47.3312 128.601 47.9401 128.601 48.5754C128.866 48.0989 129.104 47.6224 129.316 47.1459C129.527 46.6165 129.66 46.0606 129.713 45.4782ZM127.489 61.2819C128.336 61.176 128.866 60.8318 129.077 60.2495C129.342 59.6671 129.527 59.0317 129.633 58.3435C128.945 58.5023 128.363 58.7406 127.886 59.0582C127.463 59.3759 127.145 59.72 126.933 60.0906C126.721 60.4083 126.642 60.6995 126.695 60.9642C126.801 61.176 127.066 61.2819 127.489 61.2819Z" fill="white"/>
<path d="M40.8873 66.6167H42.0708L45.0894 74.1284L48.1014 66.6167H49.2912L45.5449 75.8305H44.6209L40.8873 66.6167ZM40.5012 66.6167H41.5455L41.7164 72.2362V75.8305H40.5012V66.6167ZM48.6267 66.6167H49.6709V75.8305H48.456V72.2362L48.6267 66.6167ZM53.5628 75.1219L55.4674 68.9835H56.7204L53.974 76.8875C53.9108 77.056 53.8264 77.2374 53.7208 77.4315C53.6196 77.6298 53.4889 77.8176 53.3284 77.9949C53.1682 78.1719 52.9741 78.3153 52.7463 78.4251C52.5227 78.5389 52.255 78.596 51.9428 78.596C51.8499 78.596 51.7319 78.5833 51.5882 78.558C51.4448 78.5326 51.3436 78.5116 51.2846 78.4948L51.2783 77.5454C51.3119 77.5498 51.3648 77.554 51.4365 77.5581C51.5124 77.5667 51.565 77.5708 51.5945 77.5708C51.8604 77.5708 52.0862 77.5349 52.2718 77.4632C52.4574 77.3957 52.6134 77.2796 52.74 77.1153C52.8707 76.9548 52.9827 76.7333 53.0756 76.4507L53.5628 75.1219ZM52.1642 68.9835L53.9425 74.2991L54.2461 75.533L53.4045 75.9635L50.8859 68.9835H52.1642ZM66.7571 74.837V75.8305H62.1502V74.837H66.7571ZM62.3906 66.6167V75.8305H61.1693V66.6167H62.3906ZM69.2504 68.9835V75.8305H68.0732V68.9835H69.2504ZM67.9847 67.1674C67.9847 66.9774 68.0415 66.8172 68.1557 66.6862C68.2737 66.5555 68.4466 66.4902 68.6743 66.4902C68.898 66.4902 69.0689 66.5555 69.187 66.6862C69.3094 66.8172 69.3706 66.9774 69.3706 67.1674C69.3706 67.3486 69.3094 67.5046 69.187 67.6356C69.0689 67.7622 68.898 67.8253 68.6743 67.8253C68.4466 67.8253 68.2737 67.7622 68.1557 67.6356C68.0415 67.5046 67.9847 67.3486 67.9847 67.1674ZM72.8765 75.8305H71.7056V68.2621C71.7056 67.7685 71.7942 67.353 71.9715 67.0155C72.1529 66.6735 72.4124 66.4163 72.7499 66.2434C73.0874 66.0661 73.4881 65.9775 73.9521 65.9775C74.0873 65.9775 74.2221 65.9861 74.3572 66.0029C74.4965 66.0197 74.6313 66.0451 74.762 66.0787L74.6989 67.0345C74.6104 67.0132 74.5092 66.9986 74.395 66.9901C74.2855 66.9815 74.1758 66.9774 74.066 66.9774C73.817 66.9774 73.602 67.0281 73.4205 67.1293C73.2435 67.2264 73.1084 67.3698 73.0157 67.5595C72.9228 67.7495 72.8765 67.9836 72.8765 68.2621V75.8305ZM74.3319 68.9835V69.8821H70.6236V68.9835H74.3319ZM78.325 75.9571C77.8482 75.9571 77.4158 75.8769 77.0276 75.7167C76.6437 75.552 76.3126 75.3221 76.034 75.0267C75.76 74.7314 75.549 74.3815 75.4012 73.9764C75.2537 73.5713 75.1798 73.1285 75.1798 72.6476V72.3818C75.1798 71.8248 75.262 71.329 75.4266 70.8947C75.5912 70.4557 75.8148 70.0845 76.0975 69.7809C76.3801 69.4771 76.7008 69.2471 77.0593 69.091C77.418 68.9349 77.7892 68.8569 78.173 68.8569C78.6625 68.8569 79.0844 68.9413 79.4387 69.11C79.7972 69.2788 80.0906 69.5151 80.3183 69.8187C80.5461 70.1184 80.7149 70.4728 80.8246 70.882C80.9344 71.2868 80.9892 71.7299 80.9892 72.2108V72.7361H75.876V71.7804H79.8184V71.6919C79.8016 71.3883 79.7382 71.0929 79.6284 70.8059C79.5231 70.5191 79.3543 70.2828 79.1224 70.0972C78.8902 69.9116 78.574 69.8187 78.173 69.8187C77.9072 69.8187 77.6626 69.8758 77.439 69.9897C77.2154 70.0994 77.0234 70.2638 76.8632 70.4833C76.7027 70.7025 76.5784 70.9705 76.4899 71.2868C76.4011 71.6033 76.3569 71.9682 76.3569 72.3818V72.6476C76.3569 72.9724 76.4011 73.2782 76.4899 73.565C76.5825 73.8476 76.7154 74.0966 76.8883 74.3117C77.0656 74.5268 77.2788 74.6956 77.5275 74.818C77.7806 74.9404 78.0677 75.0016 78.3881 75.0016C78.8017 75.0016 79.1519 74.9173 79.4387 74.7485C79.7255 74.5798 79.9767 74.3539 80.1918 74.0713L80.9004 74.6346C80.7529 74.858 80.5651 75.0711 80.3374 75.2735C80.1096 75.4762 79.8289 75.6408 79.4958 75.7674C79.1665 75.8937 78.7764 75.9571 78.325 75.9571ZM86.1339 66.6167H87.3174L90.336 74.1284L93.348 66.6167H94.5378L90.7915 75.8305H89.8675L86.1339 66.6167ZM85.7478 66.6167H86.7921L86.963 72.2362V75.8305H85.7478V66.6167ZM93.8733 66.6167H94.9175V75.8305H93.7023V72.2362L93.8733 66.6167ZM98.8094 75.1219L100.714 68.9835H101.967L99.2206 76.8875C99.1574 77.056 99.073 77.2374 98.9674 77.4315C98.8662 77.6298 98.7355 77.8176 98.575 77.9949C98.4148 78.1719 98.2207 78.3153 97.9929 78.4251C97.7693 78.5389 97.5015 78.596 97.1894 78.596C97.0965 78.596 96.9785 78.5833 96.8348 78.558C96.6914 78.5326 96.5902 78.5116 96.5312 78.4948L96.5248 77.5454C96.5585 77.5498 96.6112 77.554 96.6831 77.5581C96.759 77.5667 96.8116 77.5708 96.8411 77.5708C97.107 77.5708 97.3328 77.5349 97.5184 77.4632C97.7039 77.3957 97.86 77.2796 97.9866 77.1153C98.1173 76.9548 98.2292 76.7333 98.3219 76.4507L98.8094 75.1219ZM97.4108 68.9835L99.1888 74.2991L99.4927 75.533L98.6511 75.9635L96.1325 68.9835H97.4108ZM111.326 73.5019C111.326 73.2865 111.293 73.0968 111.225 72.9322C111.162 72.7634 111.048 72.6115 110.884 72.4766C110.723 72.3415 110.499 72.213 110.213 72.0906C109.93 71.9682 109.571 71.8438 109.137 71.7172C108.681 71.5821 108.27 71.4324 107.903 71.268C107.536 71.0993 107.222 70.9073 106.96 70.692C106.699 70.4769 106.498 70.2301 106.359 69.9516C106.22 69.6731 106.15 69.3546 106.15 68.9961C106.15 68.6374 106.224 68.3062 106.372 68.0026C106.519 67.6988 106.73 67.4351 107.004 67.2115C107.283 66.9837 107.614 66.8064 107.998 66.6799C108.382 66.5533 108.81 66.4902 109.282 66.4902C109.974 66.4902 110.561 66.6231 111.042 66.8889C111.527 67.1503 111.896 67.4942 112.149 67.9202C112.402 68.3421 112.529 68.7935 112.529 69.2747H111.314C111.314 68.9286 111.24 68.6228 111.092 68.357C110.945 68.087 110.721 67.8761 110.421 67.7241C110.122 67.5681 109.742 67.49 109.282 67.49C108.848 67.49 108.489 67.5554 108.207 67.6861C107.924 67.8171 107.713 67.9941 107.574 68.2177C107.439 68.4413 107.371 68.6967 107.371 68.9835C107.371 69.1776 107.411 69.3546 107.492 69.5151C107.576 69.6712 107.704 69.8168 107.878 69.9516C108.055 70.0867 108.278 70.2111 108.548 70.325C108.823 70.4389 109.15 70.5486 109.529 70.6542C110.052 70.8017 110.504 70.9664 110.884 71.1478C111.263 71.329 111.575 71.5336 111.82 71.7616C112.069 71.9852 112.252 72.2403 112.371 72.5274C112.493 72.81 112.554 73.1304 112.554 73.4892C112.554 73.8645 112.478 74.2042 112.326 74.5081C112.174 74.8117 111.957 75.0711 111.674 75.2862C111.392 75.5016 111.052 75.6681 110.656 75.7861C110.263 75.9 109.824 75.9571 109.339 75.9571C108.913 75.9571 108.493 75.8981 108.08 75.7798C107.671 75.6618 107.297 75.4845 106.96 75.2484C106.627 75.0121 106.359 74.7209 106.156 74.3751C105.958 74.0249 105.859 73.6199 105.859 73.1599H107.074C107.074 73.4765 107.135 73.7487 107.257 73.9764C107.38 74.2001 107.546 74.3856 107.757 74.5332C107.973 74.681 108.215 74.7907 108.485 74.8624C108.759 74.93 109.044 74.9636 109.339 74.9636C109.765 74.9636 110.126 74.9046 110.421 74.7863C110.717 74.6683 110.94 74.4995 111.092 74.28C111.248 74.0608 111.326 73.8013 111.326 73.5019ZM116.8 68.9835V69.8821H113.098V68.9835H116.8ZM114.351 67.319H115.522V74.1347C115.522 74.3666 115.558 74.5417 115.63 74.6597C115.701 74.778 115.794 74.8561 115.908 74.8941C116.022 74.9319 116.144 74.9509 116.275 74.9509C116.372 74.9509 116.473 74.9424 116.579 74.9255C116.689 74.9046 116.771 74.8878 116.826 74.8751L116.832 75.8305C116.739 75.8601 116.617 75.8876 116.465 75.9127C116.317 75.9422 116.138 75.9571 115.927 75.9571C115.64 75.9571 115.377 75.9 115.136 75.7861C114.895 75.6723 114.704 75.4826 114.56 75.2167C114.421 74.9468 114.351 74.5839 114.351 74.1284V67.319ZM120.097 75.1219L122.002 68.9835H123.255L120.509 76.8875C120.445 77.056 120.361 77.2374 120.255 77.4315C120.154 77.6298 120.024 77.8176 119.863 77.9949C119.703 78.1719 119.509 78.3153 119.281 78.4251C119.057 78.5389 118.79 78.596 118.477 78.596C118.384 78.596 118.266 78.5833 118.123 78.558C117.979 78.5326 117.878 78.5116 117.819 78.4948L117.813 77.5454C117.846 77.5498 117.899 77.554 117.971 77.5581C118.047 77.5667 118.1 77.5708 118.129 77.5708C118.395 77.5708 118.621 77.5349 118.806 77.4632C118.992 77.3957 119.148 77.2796 119.275 77.1153C119.406 76.9548 119.517 76.7333 119.61 76.4507L120.097 75.1219ZM118.699 68.9835L120.477 74.2991L120.781 75.533L119.939 75.9635L117.42 68.9835H118.699ZM125.584 66.1104V75.8305H124.407V66.1104H125.584ZM130.305 75.9571C129.828 75.9571 129.396 75.8769 129.007 75.7167C128.624 75.552 128.292 75.3221 128.014 75.0267C127.74 74.7314 127.529 74.3815 127.381 73.9764C127.233 73.5713 127.16 73.1285 127.16 72.6476V72.3818C127.16 71.8248 127.242 71.329 127.406 70.8947C127.571 70.4557 127.795 70.0845 128.077 69.7809C128.36 69.4771 128.68 69.2471 129.039 69.091C129.398 68.9349 129.769 68.8569 130.153 68.8569C130.642 68.8569 131.064 68.9413 131.418 69.11C131.777 69.2788 132.07 69.5151 132.298 69.8187C132.526 70.1184 132.695 70.4728 132.804 70.882C132.914 71.2868 132.969 71.7299 132.969 72.2108V72.7361H127.856V71.7804H131.798V71.6919C131.781 71.3883 131.718 71.0929 131.608 70.8059C131.503 70.5191 131.334 70.2828 131.102 70.0972C130.87 69.9116 130.553 69.8187 130.153 69.8187C129.887 69.8187 129.642 69.8758 129.419 69.9897C129.195 70.0994 129.003 70.2638 128.843 70.4833C128.683 70.7025 128.558 70.9705 128.47 71.2868C128.381 71.6033 128.337 71.9682 128.337 72.3818V72.6476C128.337 72.9724 128.381 73.2782 128.47 73.565C128.562 73.8476 128.695 74.0966 128.868 74.3117C129.045 74.5268 129.259 74.6956 129.507 74.818C129.76 74.9404 130.047 75.0016 130.368 75.0016C130.782 75.0016 131.131 74.9173 131.418 74.7485C131.705 74.5798 131.956 74.3539 132.172 74.0713L132.88 74.6346C132.733 74.858 132.545 75.0711 132.317 75.2735C132.089 75.4762 131.809 75.6408 131.475 75.7674C131.146 75.8937 130.756 75.9571 130.305 75.9571Z" fill="white"/>
</svg>
