<svg width="40" height="40" viewBox="0 0 40 40" fill="none" xmlns="http://www.w3.org/2000/svg">
<rect width="40" height="40" rx="7" fill="#EEEEEE"/>
<path fill-rule="evenodd" clip-rule="evenodd" d="M26.3219 21.264C26.608 21.416 26.8288 21.656 26.9841 21.896C27.2867 22.392 27.2621 23 26.9678 23.536L26.3955 24.496C26.093 25.008 25.5288 25.328 24.9484 25.328C24.6622 25.328 24.3434 25.248 24.0818 25.088C23.8692 24.952 23.6239 24.904 23.3623 24.904C22.5529 24.904 21.8743 25.568 21.8498 26.36C21.8498 27.28 21.0976 28 20.1574 28H19.0455C18.0972 28 17.345 27.28 17.345 26.36C17.3287 25.568 16.6501 24.904 15.8407 24.904C15.5709 24.904 15.3256 24.952 15.1212 25.088C14.8596 25.248 14.5326 25.328 14.2546 25.328C13.666 25.328 13.1018 25.008 12.7993 24.496L12.2352 23.536C11.9327 23.016 11.9164 22.392 12.2189 21.896C12.3497 21.656 12.5949 21.416 12.8729 21.264C13.1018 21.152 13.249 20.968 13.388 20.752C13.7968 20.064 13.5515 19.16 12.8566 18.752C12.0472 18.296 11.7855 17.28 12.2516 16.488L12.7993 15.544C13.2735 14.752 14.2873 14.472 15.1049 14.936C15.8162 15.32 16.74 15.064 17.157 14.384C17.2878 14.16 17.3614 13.92 17.345 13.68C17.3287 13.368 17.4186 13.072 17.5739 12.832C17.8764 12.336 18.4242 12.016 19.021 12H20.1738C20.7788 12 21.3266 12.336 21.629 12.832C21.7762 13.072 21.8743 13.368 21.8498 13.68C21.8334 13.92 21.907 14.16 22.0378 14.384C22.4548 15.064 23.3787 15.32 24.0981 14.936C24.9075 14.472 25.9295 14.752 26.3955 15.544L26.9432 16.488C27.4175 17.28 27.1558 18.296 26.3383 18.752C25.6433 19.16 25.398 20.064 25.815 20.752C25.9458 20.968 26.093 21.152 26.3219 21.264ZM17.2878 20.008C17.2878 21.264 18.3261 22.264 19.6097 22.264C20.8932 22.264 21.907 21.264 21.907 20.008C21.907 18.752 20.8932 17.744 19.6097 17.744C18.3261 17.744 17.2878 18.752 17.2878 20.008Z" fill="black"/>
</svg>
