<svg width="40" height="40" viewBox="0 0 40 40" fill="none" xmlns="http://www.w3.org/2000/svg">
<circle cx="20" cy="20" r="20" fill="#EEEEEE"/>
<path d="M18.9336 28.9994H16.123C15.9833 28.9994 15.8501 28.9407 15.7557 28.8378C15.6614 28.7348 15.6146 28.597 15.6268 28.4579L16.8265 14.7456C16.849 14.4884 17.0644 14.291 17.3226 14.291H23.8534C25.0383 14.291 26.1152 14.754 26.8856 15.5948C27.6596 16.4395 28.0286 17.5602 27.9245 18.7503C27.8221 19.9208 27.272 21.0195 26.3756 21.8438C25.4787 22.6685 24.3395 23.1227 23.1678 23.1227H19.9041L19.4298 28.5448C19.4072 28.802 19.1918 28.9994 18.9336 28.9994Z" fill="#507BE9"/>
<path d="M23.8534 14.291H20.4708V23.1227H23.1679C24.3395 23.1227 25.4788 22.6685 26.3756 21.8437C27.272 21.0194 27.8221 19.9208 27.9245 18.7503C28.0287 17.5601 27.6597 16.4395 26.8856 15.5947C26.1152 14.754 25.0383 14.291 23.8534 14.291Z" fill="#3266C8"/>
<path d="M16.3087 26.7083H13.4981C13.3585 26.7083 13.2252 26.6497 13.1309 26.5468C13.0365 26.4438 12.9897 26.306 13.0019 26.1669L14.2016 12.4546C14.2241 12.1974 14.4395 12 14.6978 12H21.2285C22.4134 12 23.4903 12.463 24.2607 13.3038C25.0348 14.1485 25.4038 15.2692 25.2997 16.4592C25.1972 17.6298 24.6472 18.7284 23.7508 19.5528C22.8539 20.3775 21.7147 20.8317 20.543 20.8317H17.2792L16.8049 26.2537C16.7823 26.511 16.5669 26.7083 16.3087 26.7083Z" fill="#7DBEFF"/>
<path d="M21.2284 12H20.4708V20.8316H20.5429C21.7146 20.8316 22.8539 20.3774 23.7507 19.5527C24.6471 18.7284 25.1972 17.6298 25.2996 16.4592C25.4037 15.2691 25.0348 14.1485 24.2607 13.3037C23.4903 12.463 22.4134 12 21.2284 12Z" fill="#6496F7"/>
<path d="M17.3227 14.291C17.0645 14.291 16.8491 14.4884 16.8266 14.7457L15.78 26.7075H16.3088C16.567 26.7075 16.7824 26.5102 16.8049 26.2529L17.2793 20.8308H20.543C21.7147 20.8308 22.8539 20.3766 23.7508 19.5519C24.6472 18.7276 25.1973 17.629 25.2997 16.4584C25.3619 15.7467 25.2549 15.0599 24.9933 14.4421C24.6302 14.3426 24.2478 14.291 23.8534 14.291H17.3227V14.291Z" fill="#6496F7"/>
<path d="M23.8534 14.291H20.4708V20.8308H20.5429C21.7146 20.8308 22.8539 20.3766 23.7507 19.5519C24.6471 18.7275 25.1972 17.6289 25.2996 16.4583C25.3619 15.7467 25.2548 15.0599 24.9933 14.442C24.6301 14.3426 24.2478 14.291 23.8534 14.291Z" fill="#507BE9"/>
</svg>
