<svg width="40" height="40" viewBox="0 0 40 40" fill="none" xmlns="http://www.w3.org/2000/svg">
<rect width="40" height="40" rx="7" fill="#EEEEEE"/>
<path fill-rule="evenodd" clip-rule="evenodd" d="M23.1347 15.576H23.2986C25.4522 15.576 27.2 17.376 27.2 19.584V24C27.2 26.208 25.4522 28 23.2986 28H15.9014C13.7478 28 12 26.208 12 24V19.584C12 17.376 13.7478 15.576 15.9014 15.576H16.0653C16.0809 14.616 16.4476 13.72 17.1109 13.048C17.7819 12.368 18.6402 12.024 19.6078 12C21.5429 12 23.1113 13.6 23.1347 15.576ZM17.9302 13.904C17.4932 14.352 17.2513 14.944 17.2357 15.576H21.9642C21.9409 14.264 20.8953 13.2 19.6078 13.2C19.007 13.2 18.3827 13.448 17.9302 13.904ZM22.5651 18.656C22.8928 18.656 23.1503 18.384 23.1503 18.056V17.128C23.1503 16.8 22.8928 16.528 22.5651 16.528C22.2452 16.528 21.9798 16.8 21.9798 17.128V18.056C21.9798 18.384 22.2452 18.656 22.5651 18.656ZM17.1499 18.056C17.1499 18.384 16.8924 18.656 16.5647 18.656C16.2448 18.656 15.9795 18.384 15.9795 18.056V17.128C15.9795 16.8 16.2448 16.528 16.5647 16.528C16.8924 16.528 17.1499 16.8 17.1499 17.128V18.056Z" fill="black"/>
</svg>
