<?xml version="1.0" encoding="iso-8859-1"?>
<!-- Uploaded to: SVG Repo, www.svgrepo.com, Generator: SVG Repo Mixer Tools -->
<svg height="800px" width="800px" version="1.1" id="Layer_1" xmlns="http://www.w3.org/2000/svg" xmlns:xlink="http://www.w3.org/1999/xlink" 
	 viewBox="0 0 512 512" xml:space="preserve">
<g transform="translate(1)">
	<g>
		<polygon style="fill:#FFE100;" points="101.253,42.667 408.453,42.667 408.453,8.533 101.253,8.533 		"/>
		<polygon style="fill:#FFE100;" points="382.853,503.467 126.853,503.467 101.253,452.267 408.453,452.267 		"/>
	</g>
	<polygon style="fill:#FFA800;" points="382.853,452.267 357.253,503.467 382.853,503.467 408.453,452.267 	"/>
	<polygon style="fill:#FFFFFF;" points="126.853,452.267 152.453,503.467 126.853,503.467 101.253,452.267 	"/>
	<polygon style="fill:#FFE100;" points="101.253,452.267 408.453,452.267 408.453,42.667 101.253,42.667 	"/>
	<polygon style="fill:#FFA800;" points="391.386,452.267 408.453,452.267 408.453,8.533 391.386,8.533 	"/>
	<polygon style="fill:#FFFFFF;" points="101.253,452.267 118.319,452.267 118.319,8.533 101.253,8.533 	"/>
	<polygon style="fill:#FDCC00;" points="135.386,349.867 374.319,349.867 374.319,76.8 135.386,76.8 	"/>
	<polygon style="fill:#63D3FD;" points="135.386,418.133 374.319,418.133 374.319,384 135.386,384 	"/>
	<polygon style="fill:#3DB9F9;" points="348.719,418.133 374.319,418.133 374.319,384 348.719,384 	"/>
	<polygon style="fill:#63D3FD;" points="169.519,213.333 271.919,213.333 271.919,110.933 169.519,110.933 	"/>
	<polygon style="fill:#3DB9F9;" points="246.319,213.333 271.919,213.333 271.919,110.933 246.319,110.933 	"/>
	<g>
		<polygon style="fill:#63D3FD;" points="306.053,145.067 340.186,145.067 340.186,110.933 306.053,110.933 		"/>
		<polygon style="fill:#63D3FD;" points="306.053,213.333 340.186,213.333 340.186,179.2 306.053,179.2 		"/>
		<polygon style="fill:#63D3FD;" points="306.053,315.733 340.186,315.733 340.186,247.467 306.053,247.467 		"/>
	</g>
	<path d="M382.853,512h-256c-3.413,0-5.973-1.707-7.68-5.12l-25.6-51.2c-1.707-2.56-0.853-5.973,0-8.533s5.12-3.413,7.68-3.413
		h307.2c2.56,0,5.973,1.707,7.68,4.267c1.707,2.56,1.707,5.973,0,8.533l-25.6,51.2C388.826,510.293,386.266,512,382.853,512z
		 M131.973,494.933h245.76l17.067-34.133H114.906L131.973,494.933z"/>
	<path d="M408.453,460.8h-307.2c-5.12,0-8.533-3.413-8.533-8.533v-409.6c0-5.12,3.413-8.533,8.533-8.533h307.2
		c5.12,0,8.533,3.413,8.533,8.533v409.6C416.986,457.387,413.573,460.8,408.453,460.8z M109.786,443.733h290.133V51.2H109.786
		V443.733z"/>
	<path d="M374.319,358.4H135.386c-5.12,0-8.533-3.413-8.533-8.533V76.8c0-5.12,3.413-8.533,8.533-8.533h238.933
		c5.12,0,8.533,3.413,8.533,8.533v273.067C382.853,354.987,379.439,358.4,374.319,358.4z M143.919,341.333h221.867v-256H143.919
		V341.333z"/>
	<path d="M408.453,51.2h-307.2c-5.12,0-8.533-3.413-8.533-8.533V8.533c0-5.12,3.413-8.533,8.533-8.533h307.2
		c5.12,0,8.533,3.413,8.533,8.533v34.133C416.986,47.787,413.573,51.2,408.453,51.2z M109.786,34.133h290.133V17.067H109.786V34.133
		z"/>
	<path d="M271.919,221.867h-102.4c-5.12,0-8.533-3.413-8.533-8.533v-102.4c0-5.12,3.413-8.533,8.533-8.533h102.4
		c5.12,0,8.533,3.413,8.533,8.533v102.4C280.453,218.453,277.039,221.867,271.919,221.867z M178.053,204.8h85.333v-85.333h-85.333
		V204.8z"/>
	<path d="M340.186,153.6h-34.133c-5.12,0-8.533-3.413-8.533-8.533v-34.133c0-5.12,3.413-8.533,8.533-8.533h34.133
		c5.12,0,8.533,3.413,8.533,8.533v34.133C348.719,150.187,345.306,153.6,340.186,153.6z M314.586,136.533h17.067v-17.067h-17.067
		V136.533z"/>
	<path d="M340.186,221.867h-34.133c-5.12,0-8.533-3.413-8.533-8.533V179.2c0-5.12,3.413-8.533,8.533-8.533h34.133
		c5.12,0,8.533,3.413,8.533,8.533v34.133C348.719,218.453,345.306,221.867,340.186,221.867z M314.586,204.8h17.067v-17.067h-17.067
		V204.8z"/>
	<path d="M340.186,324.267h-34.133c-5.12,0-8.533-3.413-8.533-8.533v-68.267c0-5.12,3.413-8.533,8.533-8.533h34.133
		c5.12,0,8.533,3.413,8.533,8.533v68.267C348.719,320.853,345.306,324.267,340.186,324.267z M314.586,307.2h17.067V256h-17.067
		V307.2z"/>
	<path d="M178.053,256h-8.533c-5.12,0-8.533-3.413-8.533-8.533c0-5.12,3.413-8.533,8.533-8.533h8.533
		c5.12,0,8.533,3.413,8.533,8.533C186.586,252.587,183.173,256,178.053,256z"/>
	<path d="M229.253,256h-17.067c-5.12,0-8.533-3.413-8.533-8.533c0-5.12,3.413-8.533,8.533-8.533h17.067
		c5.12,0,8.533,3.413,8.533,8.533C237.786,252.587,234.373,256,229.253,256z"/>
	<path d="M271.919,256h-8.533c-5.12,0-8.533-3.413-8.533-8.533c0-5.12,3.413-8.533,8.533-8.533h8.533
		c5.12,0,8.533,3.413,8.533,8.533C280.453,252.587,277.039,256,271.919,256z"/>
	<path d="M178.053,290.133h-8.533c-5.12,0-8.533-3.413-8.533-8.533c0-5.12,3.413-8.533,8.533-8.533h8.533
		c5.12,0,8.533,3.413,8.533,8.533C186.586,286.72,183.173,290.133,178.053,290.133z"/>
	<path d="M229.253,290.133h-17.067c-5.12,0-8.533-3.413-8.533-8.533c0-5.12,3.413-8.533,8.533-8.533h17.067
		c5.12,0,8.533,3.413,8.533,8.533C237.786,286.72,234.373,290.133,229.253,290.133z"/>
	<path d="M271.919,290.133h-8.533c-5.12,0-8.533-3.413-8.533-8.533c0-5.12,3.413-8.533,8.533-8.533h8.533
		c5.12,0,8.533,3.413,8.533,8.533C280.453,286.72,277.039,290.133,271.919,290.133z"/>
	<path d="M178.053,324.267h-8.533c-5.12,0-8.533-3.413-8.533-8.533c0-5.12,3.413-8.533,8.533-8.533h8.533
		c5.12,0,8.533,3.413,8.533,8.533C186.586,320.853,183.173,324.267,178.053,324.267z"/>
	<path d="M229.253,324.267h-17.067c-5.12,0-8.533-3.413-8.533-8.533c0-5.12,3.413-8.533,8.533-8.533h17.067
		c5.12,0,8.533,3.413,8.533,8.533C237.786,320.853,234.373,324.267,229.253,324.267z"/>
	<path d="M271.919,324.267h-8.533c-5.12,0-8.533-3.413-8.533-8.533c0-5.12,3.413-8.533,8.533-8.533h8.533
		c5.12,0,8.533,3.413,8.533,8.533C280.453,320.853,277.039,324.267,271.919,324.267z"/>
	<path d="M374.319,426.667H135.386c-5.12,0-8.533-3.413-8.533-8.533V384c0-5.12,3.413-8.533,8.533-8.533h238.933
		c5.12,0,8.533,3.413,8.533,8.533v34.133C382.853,423.253,379.439,426.667,374.319,426.667z M143.919,409.6h221.867v-17.067H143.919
		V409.6z"/>
</g>
</svg>