<svg width="40" height="40" viewBox="0 0 40 40" fill="none" xmlns="http://www.w3.org/2000/svg">
<rect width="40" height="40" rx="7" fill="#EEEEEE"/>
<path d="M28.7778 18.2222V27.1111C28.7778 27.3469 28.6841 27.573 28.5174 27.7397C28.3507 27.9064 28.1246 28 27.8889 28H11.8889C11.6531 28 11.427 27.9064 11.2603 27.7397C11.0937 27.573 11 27.3469 11 27.1111V18.2222H28.7778ZM28.7778 16.4444H11V12.8889C11 12.6531 11.0937 12.427 11.2603 12.2603C11.427 12.0937 11.6531 12 11.8889 12H27.8889C28.1246 12 28.3507 12.0937 28.5174 12.2603C28.6841 12.427 28.7778 12.6531 28.7778 12.8889V16.4444ZM22.5556 23.5556V25.3333H26.1111V23.5556H22.5556Z" fill="black"/>
</svg>
